# xmcd
# Copyright (C) 1995-1998 Ti Kan
#
# Track frame offsets:
#       182
#       13942
#       33772
#       48677
#       61217
#       80037
#       86770
#       101402
#       121512
#       142020
#       157677
#       167312
#       181055
#       199480
#
# Disc length: 2857 seconds
#
# Revision: 0
# Processed by: cddbd v1.4PL0 Copyright (c) Steve Scherf et al.
# Submitted via: CD-Transfer v1.0
#
DISCID=ac0b270e
DTITLE=Sam - Hugo
DYEAR=1995
DGENRE=
TTITLE0=I, L.., L.., Love You
TTITLE1=Wild, Wild Boy
TTITLE2=I Really Don't Know
TTITLE3=The Champs Elysées
TTITLE4=The Jailer
TTITLE5=It's A Crying Shame
TTITLE6=Out Stepped Julie
TTITLE7=Two Timed
TTITLE8=Why Don't You, Why?
TTITLE9=Josey
TTITLE10=Obituary
TTITLE11=We're Gonna Ride
TTITLE12=She's A Runaway
TTITLE13=We're Not In Heaven
EXTD=
EXTT0=
EXTT1=
EXTT2=
EXTT3=
EXTT4=
EXTT5=
EXTT6=
EXTT7=
EXTT8=
EXTT9=
EXTT10=
EXTT11=
EXTT12=
EXTT13=
PLAYORDER=
